<svg width="1440" height="130" viewBox="0 0 1440 130" fill="none" xmlns="http://www.w3.org/2000/svg">
<g clip-path="url(#clip0)">
<rect width="1440" height="130" fill="white"/>
<mask id="mask0" mask-type="alpha" maskUnits="userSpaceOnUse" x="-5" y="-1" width="779" height="132">
<path d="M95.2488 0L177.737 165.03L12.7609 165.03L95.2488 0Z" transform="matrix(0.613375 0.789792 -0.918934 0.394412 714.979 -75.2899)" fill="#C4C4C4"/>
<path d="M95.2488 0L177.737 165.03L12.7609 165.03L95.2488 0Z" transform="matrix(0.613375 0.789792 -0.918934 0.394412 491.258 -75.2899)" fill="#C4C4C4"/>
<path d="M95.2488 0L177.737 165.03L12.7609 165.03L95.2488 0Z" transform="matrix(0.613375 0.789792 -0.918934 0.394412 268.719 -75.2899)" fill="#C4C4C4"/>
<path d="M95.2083 0L177.661 164.957L12.7555 164.957L95.2083 0Z" transform="matrix(-0.612629 0.790371 -0.918655 -0.395061 719.433 55.0761)" fill="#C4C4C4"/>
<path d="M95.2083 0L177.661 164.957L12.7555 164.957L95.2083 0Z" transform="matrix(-0.612629 0.790371 -0.918655 -0.395061 496.654 55.0761)" fill="#C4C4C4"/>
<path d="M95.2083 0L177.661 164.957L12.7555 164.957L95.2083 0Z" transform="matrix(-0.612629 0.790371 -0.918655 -0.395061 273.655 55.0761)" fill="#C4C4C4"/>
<mask id="mask1" maskUnits="userSpaceOnUse" x="-97" y="-1" width="203" height="132">
<path d="M82.4389 0L164.878 164.936H0L82.4389 0Z" transform="matrix(0.612149 0.790743 -0.918475 0.39548 55.2275 -65.208)" fill="#C4C4C4"/>
</mask>
<g mask="url(#mask1)">
<rect width="130.327" height="113.058" transform="translate(108.835 -0.0189362) rotate(90)" fill="#C4C4C4"/>
</g>
<mask id="mask2" maskUnits="userSpaceOnUse" x="681" y="0" width="203" height="131">
<path d="M95.2117 0L177.667 164.961L12.7559 164.961L95.2117 0Z" transform="matrix(-0.61288 0.790176 -0.918749 -0.394842 941.516 55.0762)" fill="#C4C4C4"/>
</mask>
<g mask="url(#mask2)">
<rect width="130.439" height="97.4512" transform="translate(773.021 -0.0628185) rotate(90)" fill="#C4C4C4"/>
</g>
</mask>
<g mask="url(#mask0)">
<rect width="777.345" height="130.371" transform="translate(-4.22205 -0.0633926)" fill="#013D47" fill-opacity="0.5"/>
</g>
<mask id="mask3" mask-type="alpha" maskUnits="userSpaceOnUse" x="773" y="-10" width="691" height="155">
<rect width="690.769" height="153.834" transform="translate(773.021 -9.67759)" fill="#C4C4C4"/>
</mask>
<g mask="url(#mask3)">
<mask id="mask4" mask-type="alpha" maskUnits="userSpaceOnUse" x="663" y="0" width="779" height="131">
<path d="M95.2488 0L177.737 165.03L12.7609 165.03L95.2488 0Z" transform="matrix(0.613375 0.789792 -0.918934 0.394412 1382.59 -74.9399)" fill="#C4C4C4"/>
<path d="M95.2488 0L177.737 165.03L12.7609 165.03L95.2488 0Z" transform="matrix(0.613375 0.789792 -0.918934 0.394412 1158.87 -74.9399)" fill="#C4C4C4"/>
<path d="M95.2488 0L177.737 165.03L12.7609 165.03L95.2488 0Z" transform="matrix(0.613375 0.789792 -0.918934 0.394412 936.327 -74.9399)" fill="#C4C4C4"/>
<path d="M95.2083 0L177.661 164.957L12.7555 164.957L95.2083 0Z" transform="matrix(-0.612629 0.790371 -0.918655 -0.395061 1387.04 55.4257)" fill="#C4C4C4"/>
<path d="M95.2083 0L177.661 164.957L12.7555 164.957L95.2083 0Z" transform="matrix(-0.612629 0.790371 -0.918655 -0.395061 1164.26 55.4257)" fill="#C4C4C4"/>
<path d="M95.2083 0L177.661 164.957L12.7555 164.957L95.2083 0Z" transform="matrix(-0.612629 0.790371 -0.918655 -0.395061 941.263 55.4257)" fill="#C4C4C4"/>
<mask id="mask5" maskUnits="userSpaceOnUse" x="571" y="0" width="203" height="131">
<path d="M82.4389 0L164.878 164.936H0L82.4389 0Z" transform="matrix(0.612149 0.790743 -0.918475 0.39548 722.836 -64.8582)" fill="#C4C4C4"/>
</mask>
<g mask="url(#mask5)">
<rect width="130.327" height="113.058" transform="translate(776.443 0.330925) rotate(90)" fill="#C4C4C4"/>
</g>
<mask id="mask6" maskUnits="userSpaceOnUse" x="1348" y="0" width="203" height="131">
<path d="M95.2117 0L177.667 164.961L12.7559 164.961L95.2117 0Z" transform="matrix(-0.61288 0.790176 -0.918749 -0.394842 1609.12 55.4256)" fill="#C4C4C4"/>
</mask>
<g mask="url(#mask6)">
<rect width="130.439" height="97.4512" transform="translate(1440.63 0.286545) rotate(90)" fill="#C4C4C4"/>
</g>
</mask>
<g mask="url(#mask4)">
<rect width="777.345" height="133.478" transform="translate(668.262 -1.51051)" fill="#013D47" fill-opacity="0.5"/>
</g>
</g>
<rect width="1441.44" height="72.6746" transform="translate(-0.813965 28.7106)" fill="#A6D0CC"/>
</g>
<defs>
<clipPath id="clip0">
<rect width="1440" height="130" fill="white"/>
</clipPath>
</defs>
</svg>
